<svg id="SvgjsSvg1001" width="288" height="288" xmlns="http://www.w3.org/2000/svg" version="1.1" xmlns:xlink="http://www.w3.org/1999/xlink" xmlns:svgjs="http://svgjs.com/svgjs"><defs id="SvgjsDefs1002"></defs><g id="SvgjsG1008"><svg xmlns="http://www.w3.org/2000/svg" viewBox="0 0 200 200" width="288" height="288"><rect width="100%" height="100%" fill="transparent" class="colortransparent svgShape"></rect><rect width="100%" height="100%" x="-100" y="-100" fill="#000000" rx="0" ry="0" transform="translate(100 100)" vector-effect="non-scaling-stroke" visibility="hidden" class="colorfff svgShape"></rect><path fill="#000000" d="M 353.348 191.172 L 353.817 223.936 L 369.414 223.73 C 371.265 230.53 375.219 239.559 380.494 247.396 C 380.494 247.396 372.661 255.439 372.661 255.072 C 372.661 254.705 388.266 270.417 388.266 270.417 L 396.207 263.212 C 401.821 268.052 411.08 272.343 419.527 274.006 L 419.712 289.672 L 452.583 289.905 L 452.823 273.825 C 461.263 272.037 471.834 267.314 476.253 263.133 L 484.341 270.258 L 499.584 255.619 L 491.913 247.603 C 496.841 241.142 501.362 231.453 503.047 224.355 L 519.179 224.148 L 518.529 191.304 L 502.734 190.996 C 501.218 184.552 496.225 172.812 491.732 167.85 C 491.732 167.85 498.726 159.701 498.726 159.334 C 498.726 158.967 484.246 144.56 484.246 144.56 L 476.12 152.032 C 471.326 147.436 459.706 142.181 452.578 141.226 L 452.289 125.113 L 419.624 124.979 L 419.673 141.11 C 412.509 141.689 402.642 146.619 396.193 152.18 C 396.193 152.18 388.447 144.975 388.08 144.975 C 387.713 144.975 373.041 159.224 373.041 159.408 C 373.041 159.592 380.926 167.751 380.926 167.751 C 375.747 173.527 371.249 181.856 369.577 191.09 L 353.348 191.172 Z M 421.368 222.478 L 421.611 191.945 L 450.535 192.111 C 450.535 192.111 451.026 221.697 451.026 222.247 C 451.026 222.797 421.002 222.662 421.368 222.478 Z" transform="translate(-336.26 -107.44)" vector-effect="non-scaling-stroke" class="colorfff svgShape"></path></svg></g></svg>